<?xml version="1.0" encoding="UTF-8"?>
<svg width="300px" height="132px" viewBox="0 0 300 132" version="1.1" xmlns="http://www.w3.org/2000/svg" xmlns:xlink="http://www.w3.org/1999/xlink">
    <g id="Page-1" stroke="none" stroke-width="1" fill="none" fill-rule="evenodd">
        <g id="shutterstock_278214398" transform="translate(-100.000000, -184.000000)" fill="#000000">
            <g id="Group" transform="translate(100.000000, 184.000000)">
                <path d="M93.175,121.83 C93.175,127.275 88.761,131.688 83.317,131.688 L65.763,131.688 C60.318,131.688 55.905,127.275 55.905,121.83 L55.905,10.168 C55.905,4.725 60.318,0.311 65.763,0.311 L83.317,0.311 C88.761,0.311 93.175,4.725 93.175,10.168 L93.175,121.83" id="Fill-4"></path>
                <path d="M48.705,21.119 L29.269,21.119 C23.396,21.119 18.635,25.881 18.635,31.754 L18.635,100.248 C18.635,106.121 23.396,110.883 29.269,110.883 L48.705,110.883 L48.705,21.119" id="Fill-5"></path>
                <path d="M11.435,48.809 C4.718,51.625 0,58.262 0,66 C0,73.74 4.718,80.377 11.435,83.193 L11.435,48.809" id="Fill-6"></path>
                <path d="M206.825,121.83 C206.825,127.273 211.239,131.688 216.683,131.688 L234.238,131.688 C239.682,131.688 244.096,127.273 244.096,121.83 L244.096,10.17 C244.096,4.725 239.682,0.311 234.238,0.311 L216.683,0.311 C211.239,0.311 206.825,4.725 206.825,10.17 L206.825,121.83" id="Fill-7"></path>
                <path d="M270.732,21.121 L251.296,21.121 L251.296,110.883 L270.732,110.883 C276.604,110.883 281.366,106.121 281.366,100.248 L281.366,31.756 C281.366,25.881 276.604,21.121 270.732,21.121" id="Fill-8"></path>
                <path d="M288.566,48.809 L288.566,83.191 C295.282,80.377 300,73.74 300,66 C300,58.262 295.282,51.627 288.566,48.809" id="Fill-9"></path>
                <polygon id="Fill-10" points="100.375 80.598 199.625 80.598 199.625 51.404 100.375 51.404"></polygon>
            </g>
        </g>
    </g>
</svg>