<?xml version="1.0" encoding="UTF-8"?>
<svg width="388px" height="388px" viewBox="0 0 388 388" version="1.1" xmlns="http://www.w3.org/2000/svg" xmlns:xlink="http://www.w3.org/1999/xlink">
    <g id="Page-1" stroke="none" stroke-width="1" fill="none" fill-rule="evenodd">
        <g id="shutterstock_522449008" transform="translate(-92.000000, -190.000000)">
            <g id="Group" transform="translate(92.000000, 190.000000)">
                <path d="M387.18,194 C387.18,300.916 300.507,387.588 193.592,387.588 C86.676,387.588 0.004,300.916 0.004,194 C0.004,87.084 86.676,0.412 193.592,0.412 C300.507,0.412 387.18,87.084 387.18,194" id="Fill-3" fill="#109648"></path>
                <path d="M291.403,203.395 L197.87,80.881 C195.716,78.059 191.468,78.059 189.313,80.881 L95.781,203.395 C93.077,206.938 95.603,212.044 100.06,212.044 L137.396,212.044 C140.369,212.044 142.779,214.454 142.779,217.427 L142.779,303.852 C142.779,306.825 145.189,309.235 148.162,309.235 L239.022,309.235 C241.995,309.235 244.405,306.825 244.405,303.852 L244.405,217.427 C244.405,214.454 246.815,212.044 249.788,212.044 L287.124,212.044 C291.581,212.044 294.107,206.938 291.403,203.395" id="Fill-4" fill="#FFFFFE"></path>
            </g>
        </g>
    </g>
</svg>