<?xml version="1.0" encoding="UTF-8"?>
<svg width="1689px" height="1501px" viewBox="0 0 1689 1501" version="1.1" xmlns="http://www.w3.org/2000/svg" xmlns:xlink="http://www.w3.org/1999/xlink">
    <defs></defs>
    <g id="Page-1" stroke="none" stroke-width="1" fill="none" fill-rule="evenodd">
        <g id="shutterstock_396974155" fill="#000000">
            <g id="Group">
                <path d="M540.208,691.06 C545.71,680.977 556.083,674.49 567.557,673.935 C578.999,673.298 589.965,678.825 596.434,688.342 L679.781,810.945 L785.641,399.222 C789.467,384.366 802.687,373.574 818.401,374.47 C833.76,374.844 846.807,385.763 849.898,400.807 L971.884,994.882 L1071.01,705.717 C1075.068,693.869 1085.507,685.346 1097.901,683.709 C1110.323,682.06 1122.59,687.601 1129.574,697.999 L1224.049,838.326 L1571.86,838.326 C1653.926,704.242 1688.948,579.525 1688.948,465.394 C1688.948,208.655 1480.8,0.5 1224.049,0.5 C1067.313,0.5 928.769,104.549 844.539,223.402 C760.308,104.549 621.778,0.5 464.998,0.5 C208.264,0.5 0.052,208.655 0.052,465.394 C0.052,579.525 35.086,704.242 117.14,838.326 L459.694,838.326 L540.208,691.06" id="Fill-1"></path>
                <path d="M1179.13,889.738 L1111.896,789.877 L995.077,1130.642 C990.464,1144.055 977.888,1152.933 963.882,1152.933 C963.174,1152.933 962.478,1152.907 961.781,1152.867 C946.937,1151.914 934.555,1141.155 931.553,1126.582 L813.98,553.916 L725.485,898.088 C722.251,910.639 711.976,920.147 699.2,922.364 C686.418,924.605 673.539,919.143 666.259,908.408 L572.203,770.06 L508.182,887.136 C502.409,897.727 491.308,904.311 479.248,904.311 L160.801,904.311 C291.265,1087.463 509.374,1287.081 844.5,1500.5 C1179.646,1287.081 1397.741,1087.463 1528.217,904.299 L1206.499,904.299 C1195.52,904.299 1185.264,898.835 1179.13,889.738" id="Fill-2"></path>
            </g>
        </g>
    </g>
</svg>