<?xml version="1.0" encoding="UTF-8"?>
<svg width="388px" height="388px" viewBox="0 0 388 388" version="1.1" xmlns="http://www.w3.org/2000/svg" xmlns:xlink="http://www.w3.org/1999/xlink">
    <g id="Page-1" stroke="none" stroke-width="1" fill="none" fill-rule="evenodd">
        <g id="shutterstock_522449008" transform="translate(-544.000000, -190.000000)">
            <g id="Group-2" transform="translate(544.000000, 190.000000)">
                <path d="M0.82,194 C0.82,87.084 87.492,0.412 194.408,0.412 C301.324,0.412 387.996,87.084 387.996,194 C387.996,300.916 301.324,387.588 194.408,387.588 C87.492,387.588 0.82,300.916 0.82,194" id="Fill-5" fill="#ac3931"></path>
                <path d="M96.597,184.605 L190.13,307.119 C192.284,309.941 196.532,309.941 198.687,307.119 L292.219,184.605 C294.923,181.062 292.397,175.956 287.94,175.956 L250.604,175.956 C247.631,175.956 245.221,173.546 245.221,170.573 L245.221,84.148 C245.221,81.175 242.811,78.765 239.838,78.765 L148.978,78.765 C146.005,78.765 143.595,81.175 143.595,84.148 L143.595,170.573 C143.595,173.546 141.185,175.956 138.212,175.956 L100.876,175.956 C96.419,175.956 93.893,181.062 96.597,184.605" id="Fill-6" fill="#FFFFFE"></path>
            </g>
        </g>
    </g>
</svg>