<?xml version="1.0" encoding="UTF-8"?>
<svg width="354px" height="59px" viewBox="0 0 354 59" version="1.1" xmlns="http://www.w3.org/2000/svg" xmlns:xlink="http://www.w3.org/1999/xlink">
    <defs></defs>
    <g id="Page-1" stroke="none" stroke-width="1" fill="none" fill-rule="evenodd">
        <g id="Group-2" transform="translate(-1.000000, 0.000000)" fill="#FFFFFF">
            <path d="M1.44,57.376 L3.072,47.872 C6.5920176,48.7360043 9.77598576,49.168 12.624,49.168 C14.0640072,49.168 15.3359945,49.1440002 16.44,49.096 C17.5440055,49.0479998 18.5279957,48.9600006 19.392,48.832 L19.392,45.952 L14.208,45.52 C11.8719883,45.2959989 9.92000784,44.9120027 8.352,44.368 C6.78399216,43.8239973 5.52800472,43.0800047 4.584,42.136 C3.63999528,41.1919953 2.968002,40.0560066 2.568,38.728 C2.167998,37.3999934 1.968,35.840009 1.968,34.048 C1.968,31.5839877 2.22399744,29.5280082 2.736,27.88 C3.24800256,26.2319918 4.0639944,24.904005 5.184,23.896 C6.3040056,22.887995 7.75199112,22.1760021 9.528,21.76 C11.3040089,21.3439979 13.4719872,21.136 16.032,21.136 C21.1200254,21.136 25.7279794,21.6159952 29.856,22.576 L28.416,31.792 C24.8319821,31.2159971 21.9680107,30.928 19.824,30.928 C17.6799893,30.928 15.8560075,31.023999 14.352,31.216 L14.352,34.048 L18.48,34.432 C21.0080126,34.6880013 23.1199915,35.111997 24.816,35.704 C26.5120085,36.296003 27.8799948,37.0719952 28.92,38.032 C29.9600052,38.9920048 30.6959978,40.1279934 31.128,41.44 C31.5600022,42.7520066 31.776,44.2559915 31.776,45.952 C31.776,48.3840122 31.4560032,50.4319917 30.816,52.096 C30.1759968,53.7600083 29.4080045,55.0239957 28.512,55.888 C27.7759963,56.5920035 26.8640054,57.143998 25.776,57.544 C24.6879946,57.944002 23.5360061,58.239999 22.32,58.432 C21.1039939,58.624001 19.8800062,58.7439998 18.648,58.792 C17.4159938,58.8400002 16.304005,58.864 15.312,58.864 C12.8159875,58.864 10.4160115,58.7360013 8.112,58.48 C5.80798848,58.2239987 3.58401072,57.8560024 1.44,57.376 Z M65.712,42.112 L68.448,22 L80.496,22 L74.88,58 L59.808,58 L57.168,44.752 L56.496,44.752 L53.904,58 L38.88,58 L33.216,22 L45.264,22 L47.952,42.112 L48.288,42.112 L52.464,22 L61.248,22 L65.376,42.112 L65.712,42.112 Z M106.416,36.064 L106.416,44.416 L94.896,44.416 L94.896,48.784 L109.008,48.784 L109.008,58 L83.376,58 L83.376,22 L108.72,22 L107.28,31.216 L94.896,31.216 L94.896,36.064 L106.416,36.064 Z M123.792,52.288 L122.496,58 L110.352,58 L119.664,22 L137.472,22 L146.784,58 L134.64,58 L133.296,52.288 L123.792,52.288 Z M128.88,33.04 L128.256,33.04 L125.904,43.12 L131.184,43.12 L128.88,33.04 Z M174.624,22 L174.624,31.216 L166.272,31.216 L166.272,58 L154.752,58 L154.752,31.216 L146.4,31.216 L146.4,22 L174.624,22 Z M224.16,58 L213.312,58 L204.528,45.232 C204.367999,45.0079989 204.24,44.6720022 204.144,44.224 C204.048,43.7759978 203.984,43.1840037 203.952,42.448 L203.712,42.448 L203.712,58 L192.192,58 L192.192,22 L203.04,22 L211.824,34.768 C211.984001,34.9920011 212.112,35.3279978 212.208,35.776 C212.304,36.2240022 212.368,36.8159963 212.4,37.552 L212.64,37.552 L212.64,22 L224.16,22 L224.16,58 Z M228.192,40.048 C228.192,36.7519835 228.471997,33.9120119 229.032,31.528 C229.592003,29.1439881 230.535993,27.1840077 231.864,25.648 C233.192007,24.1119923 234.943989,22.9760037 237.12,22.24 C239.296011,21.5039963 241.983984,21.136 245.184,21.136 C248.416016,21.136 251.111989,21.5039963 253.272,22.24 C255.432011,22.9760037 257.175993,24.1119923 258.504,25.648 C259.832007,27.1840077 260.775997,29.1439881 261.336,31.528 C261.896003,33.9120119 262.176,36.7519835 262.176,40.048 C262.176,43.1840157 261.920003,45.9279882 261.408,48.28 C260.895997,50.6320118 259.992006,52.5919922 258.696,54.16 C257.399994,55.7280078 255.656011,56.9039961 253.464,57.688 C251.271989,58.4720039 248.512017,58.864 245.184,58.864 C241.855983,58.864 239.096011,58.4720039 236.904,57.688 C234.711989,56.9039961 232.968006,55.7280078 231.672,54.16 C230.375994,52.5919922 229.472003,50.6320118 228.96,48.28 C228.447997,45.9279882 228.192,43.1840157 228.192,40.048 Z M240.576,34.048 L240.576,49.024 L245.376,49.024 C246.976008,49.024 248.119997,48.8400018 248.808,48.472 C249.496003,48.1039982 249.84,47.2640066 249.84,45.952 L249.84,30.976 L244.992,30.976 C243.455992,30.976 242.336004,31.1599982 241.632,31.528 C240.927996,31.8960018 240.576,32.7359934 240.576,34.048 Z M291.84,22 L291.84,31.216 L283.488,31.216 L283.488,58 L271.968,58 L271.968,31.216 L263.616,31.216 L263.616,22 L291.84,22 Z M318.048,36.064 L318.048,44.416 L306.528,44.416 L306.528,48.784 L320.64,48.784 L320.64,58 L295.008,58 L295.008,22 L320.352,22 L318.912,31.216 L306.528,31.216 L306.528,36.064 L318.048,36.064 Z M324.096,57.376 L325.728,47.872 C329.248018,48.7360043 332.431986,49.168 335.28,49.168 C336.720007,49.168 337.991994,49.1440002 339.096,49.096 C340.200006,49.0479998 341.183996,48.9600006 342.048,48.832 L342.048,45.952 L336.864,45.52 C334.527988,45.2959989 332.576008,44.9120027 331.008,44.368 C329.439992,43.8239973 328.184005,43.0800047 327.24,42.136 C326.295995,41.1919953 325.624002,40.0560066 325.224,38.728 C324.823998,37.3999934 324.624,35.840009 324.624,34.048 C324.624,31.5839877 324.879997,29.5280082 325.392,27.88 C325.904003,26.2319918 326.719994,24.904005 327.84,23.896 C328.960006,22.887995 330.407991,22.1760021 332.184,21.76 C333.960009,21.3439979 336.127987,21.136 338.688,21.136 C343.776025,21.136 348.383979,21.6159952 352.512,22.576 L351.072,31.792 C347.487982,31.2159971 344.624011,30.928 342.48,30.928 C340.335989,30.928 338.512008,31.023999 337.008,31.216 L337.008,34.048 L341.136,34.432 C343.664013,34.6880013 345.775992,35.111997 347.472,35.704 C349.168008,36.296003 350.535995,37.0719952 351.576,38.032 C352.616005,38.9920048 353.351998,40.1279934 353.784,41.44 C354.216002,42.7520066 354.432,44.2559915 354.432,45.952 C354.432,48.3840122 354.112003,50.4319917 353.472,52.096 C352.831997,53.7600083 352.064004,55.0239957 351.168,55.888 C350.431996,56.5920035 349.520005,57.143998 348.432,57.544 C347.343995,57.944002 346.192006,58.239999 344.976,58.432 C343.759994,58.624001 342.536006,58.7439998 341.304,58.792 C340.071994,58.8400002 338.960005,58.864 337.968,58.864 C335.471988,58.864 333.072012,58.7360013 330.768,58.48 C328.463988,58.2239987 326.240011,57.8560024 324.096,57.376 Z" id="SWEAT-NOTES"></path>
            <path d="M172.759646,17.4247018 C172.341643,16.145603 172.465095,14.5981123 172.608033,12.8062529 C173.82961,16.6216616 176.135164,19.3018433 179.517756,20.8536048 C176.709317,21.7715557 173.67773,20.2332739 172.759646,17.4247018 Z M170.509078,-5.74281493 C177.102496,5.78068538 170.509078,8.96121578 170.509078,14.7853594 C170.509078,19.2340447 174.115218,22.8401851 178.56377,22.8401851 C183.012455,22.8401851 186.618729,19.2340447 186.618729,14.7853594 C186.618729,4.05996118 170.509078,-5.74281493 170.509078,-5.74281493 Z" id="Fill-358" transform="translate(178.563903, 8.548685) rotate(-92.000000) translate(-178.563903, -8.548685) "></path>
        </g>
    </g>
</svg>